<?xml version="1.0" encoding="UTF-8" standalone="no"?>
<!-- Created with Inkscape (http://www.inkscape.org/) -->

<svg
   width="256"
   height="256"
   viewBox="0 0 67.733332 67.733333"
   version="1.1"
   id="svg1"
   xml:space="preserve"
   inkscape:version="1.3.2 (091e20e, 2023-11-25, custom)"
   sodipodi:docname="icon.svg"
   xmlns:inkscape="http://www.inkscape.org/namespaces/inkscape"
   xmlns:sodipodi="http://sodipodi.sourceforge.net/DTD/sodipodi-0.dtd"
   xmlns="http://www.w3.org/2000/svg"
   xmlns:svg="http://www.w3.org/2000/svg"><sodipodi:namedview
     id="namedview1"
     pagecolor="#ffffff"
     bordercolor="#000000"
     borderopacity="0.25"
     inkscape:showpageshadow="2"
     inkscape:pageopacity="0.0"
     inkscape:pagecheckerboard="0"
     inkscape:deskcolor="#d1d1d1"
     inkscape:document-units="mm"
     inkscape:zoom="2.0430945"
     inkscape:cx="208.01779"
     inkscape:cy="83.941294"
     inkscape:window-width="1920"
     inkscape:window-height="974"
     inkscape:window-x="-11"
     inkscape:window-y="-11"
     inkscape:window-maximized="1"
     inkscape:current-layer="layer1" /><defs
     id="defs1"><path
       d="m 51.982403,30.794062 0.01454,0.0063 c 0.04311,0.0042 0.08206,0.01994 0.116339,0.04514 0.01091,0.0073 0.0187,0.01522 0.02805,0.02467 0.03012,0.02887 0.05505,0.06403 0.06648,0.107598 5.19e-4,0.0016 0,0.0031 5.19e-4,0.0047 5.2e-4,0.0021 0.0026,0.0037 0.0031,0.0058 v 0 c 0.0026,-5.25e-4 1.647444,13.773108 1.730543,14.322122 0.496518,3.272038 -2.98794,8.759552 -11.263593,11.015442 v 0 C 34.786557,58.449451 29.007,55.930601 27.525755,52.405576 c -0.19009,-0.452963 -5.638289,-13.2031 -5.638289,-13.2031 v 0 l 0.0021,-10e-4 c -5.19e-4,-0.0084 -0.0016,-0.0089 -0.0021,-0.01102 -0.01195,-0.04304 -0.0068,-0.0866 0.0047,-0.126493 0.0031,-0.01365 0.0062,-0.02309 0.01195,-0.03569 0.01714,-0.03884 0.04311,-0.07243 0.07791,-0.09763 0.0052,-0.0037 0.0057,-0.01 0.01091,-0.01312 0.0083,-0.0052 0.01818,-0.0016 0.02701,-0.0058 0.01246,-0.0063 0.02337,-0.01522 0.03791,-0.0189 0.02285,-0.0063 0.0457,-0.0052 0.06908,-0.0042 l 0.01591,-5.25e-4 v 0 l 0.01629,10e-4 c 0.04155,0.0073 0.07739,0.02729 0.109587,0.05354 0.0062,0.0052 0.01454,0.0047 0.02026,0.01 v 0 h 5.19e-4 c 0.0057,0.0063 0.0083,0.0089 0.01039,0.01207 v 0 l 11.902419,13.511198 c 0.04934,0.08188 0.149579,0.127019 0.246182,0.1013 0.09816,-0.02677 0.163083,-0.116521 0.16516,-0.213622 v 0 l 3.473551,-12.577979 c 0.02389,-0.07506 0.08362,-0.136991 0.164641,-0.158511 v 0 l 0.0605,-0.0084 c 0.05987,-4.67e-4 0.116736,0.02217 0.160753,0.06193 v 0 l 9.228699,9.137458 c 0.05038,0.08345 0.150098,0.129118 0.247739,0.101825 0.09764,-0.02677 0.162044,-0.115472 0.164641,-0.213622 v 0 l 3.624688,-17.71593 c 0.001,-0.0031 0.001,-0.0079 0.0026,-0.01155 l 0.001,-0.0037 0.01246,-0.01942 c 0.01506,-0.03884 0.03636,-0.07401 0.06856,-0.101824 0.0083,-0.0073 0.01818,-0.01102 0.02805,-0.0168 0.01974,-0.0126 0.03895,-0.02572 0.06232,-0.03149 0.0135,-0.0037 0.02753,-0.0016 0.04155,-0.0032 0.0099,0 0.01662,-0.0084 0.02701,-0.0084 z M 33.271034,20.835446 c 4.689398,-1.270185 9.179877,-1.265461 12.437371,-0.232518 -0.87514,1.155764 -2.578676,3.267315 -3.314624,3.221126 -0.81749,-0.05039 -1.107299,-1.035043 -1.500462,-1.989256 v 0 l -0.293445,-0.713823 -0.0062,0.773133 c -0.0052,1.081757 -0.213981,2.351942 -1.20546,3.072588 -0.736468,0.535367 -1.821952,0.602025 -3.186859,0.220445 v 0 l -0.843458,-0.236716 0.711538,0.514372 c 1.047571,0.761586 1.676529,1.778259 1.682761,2.646918 0.0065,1.207201 -2.04479,2.85249 -2.484425,3.191194 l -0.07269,0.05531 v 0 l -0.0096,0.0072 c 0,0 2.899128,-1.039767 4.284289,-0.216771 0.820606,0.486554 1.138461,1.112724 1.416324,2.66214 v 0 l 0.122572,0.688629 0.180222,-0.676557 c 0.342784,-1.293805 0.756203,-2.341969 1.531105,-2.752418 0.79204,-0.42357 1.754434,-0.233042 3.048186,0.226744 v 0 l 0.392645,0.14119 -0.204633,-0.367934 c -0.433155,-0.76526 -0.748932,-1.805027 -0.537029,-2.399704 0.281499,-0.785205 1.334783,-1.099078 2.73189,-1.630771 v 0 l 0.840342,-0.319121 -0.897992,0.01575 c -0.999789,0.01575 -2.002693,0.0079 -2.201612,-0.712774 -0.229043,-0.828244 1.961663,-2.771312 3.07831,-3.696657 0.808141,0.7028 1.371658,1.543642 1.627708,2.509927 1.187281,4.480813 -4.644213,9.95363 -13.025818,12.224217 -8.167105,2.212326 -15.737972,0.566335 -17.220256,-3.664641 v 0 l 0.285654,-0.0147 6.739874,-0.222545 c 0.224887,0.405724 0.65181,0.681806 1.144693,0.678132 0.721406,-0.0047 1.301023,-0.600976 1.296868,-1.329495 -0.0052,-0.729569 -0.593121,-1.316899 -1.315046,-1.312175 -0.492883,0.0037 -0.914612,0.286054 -1.134825,0.694403 v 0 l -6.91698,-0.133317 -0.357846,-0.0105 c 0.08777,-3.491959 3.925404,-7.319834 9.592777,-9.685422 v 0 l 0.102316,0.237766 0.0047,0.01102 1.317124,3.061565 c -0.290848,0.361111 -0.38797,0.863411 -0.203074,1.325296 0.270592,0.676033 1.031989,1.002502 1.701458,0.729569 0.667911,-0.273982 0.991999,-1.042391 0.721406,-1.718423 -0.184376,-0.46346 -0.599873,-0.755288 -1.056919,-0.811449 v 0 L 31.03106,21.539851 c 0.723483,-0.258761 1.470338,-0.496002 2.240046,-0.704375 z M 9.0978577,31.537803 19.408925,31.736729 c -0.0099,0.505974 0.04415,1.00775 0.175028,1.501127 0.0161,0.06036 0.0374,0.118096 0.05557,0.177406 v 0 L 9.1124001,33.763776 C 8.7415694,33.7664 8.3785293,33.583745 8.1671454,33.24153 7.8446161,32.717185 8.0030242,32.028556 8.5203175,31.703137 8.7010585,31.59029 8.8999775,31.538328 9.0978577,31.537803 Z M 54.582425,11.599784 c 0.584292,-0.174256 1.199227,0.16376 1.373216,0.755288 0.111665,0.387354 0.0057,0.782581 -0.241507,1.061812 v 0 L 43.134975,26.817859 c 0.150098,0.439841 0.07219,0.945815 -0.258647,1.315848 -0.483015,0.541666 -1.308814,0.584705 -1.843766,0.09658 -0.537029,-0.488128 -0.580657,-1.322671 -0.09764,-1.864337 0.33032,-0.371083 0.819048,-0.5023 1.267784,-0.396277 v 0 L 54.077077,11.926778 c 0.131401,-0.149063 0.302274,-0.265584 0.505348,-0.326994 z m -29.673571,-4.703031 0.119922,0.01353 c 0.393164,0.067708 0.698034,0.3369665 0.837745,0.6844302 v 0 l 4.923634,13.2949518 c -0.470549,0.167958 -0.929154,0.346414 -1.37789,0.532218 v 0 L 23.824875,8.429256 C 23.750085,8.2445018 23.72152,8.038228 23.756318,7.8272304 23.857076,7.2194311 24.426306,6.808983 25.028776,6.9102828 Z"
       id="path-1" /></defs><g
     inkscape:label="Layer 1"
     inkscape:groupmode="layer"
     id="layer1"><path
       class="st0"
       d="m 35.535228,27.180902 c 0.0062,0.01552 0.0062,0.01552 0,0 z m -3.246357,2.212621 c 0.0031,0.01242 0.0031,0.01242 0,0 z m 17.413028,10.899699 c 1.967374,-1.438165 4.717959,-1.014673 6.156093,0.952732 1.438164,1.967374 1.014642,4.717991 -0.952764,6.156124 -1.967374,1.438134 -4.717959,1.014611 -6.152647,-0.954129 -1.438133,-1.967343 -1.018057,-4.716625 0.949318,-6.154727 z m -19.015591,8.343689 c -2.4221,0.268563 -4.164253,2.438804 -3.895752,4.860966 0.268564,2.422131 2.438835,4.164253 4.859631,3.892275 2.422131,-0.268564 4.164253,-2.438804 3.892275,-4.8596 -0.263596,-2.42002 -2.434023,-4.162142 -4.856154,-3.893641 z m 0.186598,1.681765 -0.569665,1.98768 -2.040088,0.385303 1.720823,1.15653 -0.264527,2.059182 1.634076,-1.27684 1.868022,0.893369 -0.712423,-1.944616 1.429968,-1.506408 -2.072719,0.07731 -0.985768,-1.822505 z m 0.219197,-15.814625 -3.779509,1.208007 0.06334,-2.800696 -0.11053,-0.396605 -0.432496,-0.695129 -0.159275,-1.458749 0.05713,-0.0062 4.118241,-0.448795 0.14965,1.403111 -0.369096,0.741452 -0.05992,0.518343 z m 4.770058,10.088979 -11.165623,1.216731 c 0.09252,-0.780479 0.362483,-1.542795 0.712795,-2.189862 0.420325,-0.793054 0.965245,-1.428633 1.469026,-1.782919 l 0.295575,-0.217956 0.0031,-0.365991 0.07824,-3.475707 4.33719,-1.393145 1.20096,4.514876 0.09594,0.358695 0.358385,0.137852 c 0.582487,0.225097 1.072856,0.691683 1.499701,1.270227 0.411352,0.568734 0.772283,1.232318 1.110983,1.920337 z m -10.95574,3.182522 11.23635,-1.228406 1.227381,11.193163 -11.236319,1.228343 z m 1.432514,13.15678 11.236319,-1.228375 0.09811,0.852914 c 0.0093,0.62583 -0.08414,1.097912 -0.306752,1.390506 -0.181941,0.244967 -0.516263,0.362949 -1.01576,0.351275 l -0.10401,-0.0031 -8.208383,0.898554 c -0.474069,0.05371 -0.825778,-0.01552 -1.066367,-0.22696 -0.25956,-0.219818 -0.426038,-0.606549 -0.520703,-1.155847 l -0.09345,-0.882383 z M 25.807583,36.689381 c -0.01552,0.109598 -0.02484,0.228201 -0.01242,0.341898 l -0.09097,3.860761 c -0.572149,0.483942 -1.150165,1.207542 -1.602376,2.04074 -0.45721,0.850958 -0.803393,1.844891 -0.897685,2.875553 l -0.002,0.147477 1.757181,16.008581 2.79e-4,0.04347 c 0.151513,0.919201 0.497789,1.616193 1.027868,2.083305 0.566964,0.48053 1.282087,0.66979 2.191943,0.5655 l 8.165178,-0.89762 c 0.987475,0.02484 1.704928,-0.310478 2.165273,-0.929136 0.447057,-0.58168 0.629618,-1.38529 0.605432,-2.354043 l -0.0062,-0.05713 -1.748766,-15.956389 -0.07917,-0.24652 c -0.411538,-0.834006 -0.840681,-1.67301 -1.378273,-2.4144 -0.498442,-0.681375 -1.081209,-1.242874 -1.808348,-1.605636 l -2.060735,-7.744654 0.345966,-0.688919 0.07451,-0.409117 -0.192807,-1.809993 c -0.02794,-0.251176 -0.01863,-0.199016 -0.02173,-0.166105 -0.0444,-0.450038 -0.0621,-0.649054 -0.412345,-0.877225 -0.281604,-0.19529 -0.473355,-0.168279 -0.813918,-0.107425 l -0.278809,0.03695 -4.218401,0.45603 c -0.166106,0.02173 -0.270116,0.01863 -0.356646,0.01863 -0.313427,0.01863 -0.502602,0.02173 -0.742446,0.229443 -0.371176,0.31855 -0.346897,0.574477 -0.27322,1.171495 l 0.196843,1.820332 0.103078,0.308304 0.39884,0.648837 -0.0888,3.570868 z m 0.542622,-6.345144 c -0.01552,0.0062 0,0 0.05278,-0.04719 0.08724,-0.08166 0.01242,-0.0093 -0.05278,0.04719 z m 13.496319,-0.182561 3.602878,-1.662298 -1.938655,-2.022329 -0.186287,-0.367078 -0.150581,-0.804727 -0.868655,-1.175035 -0.04595,0.03446 -3.339842,2.450943 0.837545,1.135604 0.773028,0.297438 0.394338,0.341681 z m 3.299075,10.664853 9.055057,-6.645127 C 51.60519,33.668431 50.891215,33.288654 50.195807,33.048158 49.350158,32.747305 48.519071,32.64671 47.908268,32.725789 l -0.364998,0.03912 -0.250245,-0.267011 -2.405458,-2.509996 -4.139167,1.902453 2.164186,4.140347 0.171694,0.329262 -0.171073,0.343699 c -0.277568,0.559357 -0.32386,1.234708 -0.247762,1.949676 0.08073,0.697179 0.262975,1.43031 0.477981,2.166422 z m 10.230246,-5.058647 -9.115071,6.68431 6.655838,9.082564 9.115041,-6.684309 z m 7.828917,10.673826 -9.11504,6.684309 0.503781,0.695129 c 0.415513,0.468108 0.803548,0.752847 1.165503,0.818047 0.299611,0.05775 0.625861,-0.08103 0.986326,-0.427124 l 0.07483,-0.07265 6.659534,-4.88214 c 0.385893,-0.280672 0.598415,-0.56923 0.633033,-0.887625 0.04285,-0.337521 -0.09563,-0.735088 -0.396822,-1.204003 L 61.188835,46.451768 Z M 45.220647,28.206846 c 0.08631,0.06924 0.173557,0.150581 0.240931,0.242793 l 2.674953,2.78539 c 0.748811,-0.03105 1.663789,0.113635 2.560046,0.422375 0.911966,0.318643 1.838619,0.817705 2.60435,1.513983 l 0.100905,0.107425 9.522729,12.993251 0.02794,0.03229 c 0.509214,0.780137 0.724686,1.527985 0.649364,2.230473 -0.09345,0.737292 -0.492946,1.359893 -1.234305,1.897641 l -6.627057,4.853638 c -0.711957,0.684697 -1.468188,0.919325 -2.224108,0.777809 -0.722606,-0.126985 -1.400038,-0.596179 -2.03658,-1.326827 l -0.03446,-0.04595 -9.488918,-12.946989 -0.108046,-0.235032 C 41.588521,40.616151 41.338182,39.70763 41.2338,38.797775 41.14097,37.958646 41.19157,37.151 41.482493,36.392316 l -3.711918,-7.102648 -0.720464,-0.274152 -0.331248,-0.251487 -1.080432,-1.464928 c -0.150272,-0.203052 -0.121087,-0.158964 -0.09687,-0.13661 -0.271357,-0.3618 -0.392599,-0.520547 -0.288433,-0.925379 0.07576,-0.334292 0.236584,-0.440475 0.527719,-0.628904 l 0.230685,-0.160828 3.418516,-2.513225 c 0.136611,-0.09687 0.211125,-0.169521 0.276326,-0.226338 0.244035,-0.197775 0.38493,-0.323891 0.702394,-0.332398 0.488847,-0.01552 0.643807,0.189392 0.992753,0.679264 l 1.084406,1.475266 0.132264,0.297128 0.144061,0.747848 2.477552,2.573085 z m -4.682813,-4.313501 c 0.01552,-0.0062 0,0 -0.07079,9.01e-4 -0.119224,-9.01e-4 -0.01863,0.0031 0.07079,-9.01e-4 z m 10.167964,17.779609 1.762707,1.080836 1.764601,-1.093969 -0.487668,2.015219 1.586108,1.339619 -2.067442,0.16238 -0.773928,1.920585 -0.788241,-1.915152 -2.072005,-0.144683 1.580581,-1.343189 -0.504216,-2.009692 z"
       id="path1"
       style="stroke-width:0.369093;fill:#d40000"
       sodipodi:nodetypes="ccccssscsssccscccccccccccccccccccccccccccccccccccccccccccccccccccccccccccccccccccccccccccccccccccccccccccccccccccccccccccccccccccccccccccccccccccccccccccccccccccccccccccccccccccccccccccccccccccccccc" /><path
       style="fill:#d40000;fill-opacity:1;stroke-width:1.01621;stroke-dasharray:none"
       d="m 37.569013,19.627628 c -1.709646,-0.421629 -1.842189,1.617403 -1.450894,2.125159 0.940096,1.219898 2.969007,0.159896 2.384035,-1.276282 C 38.467694,20.395475 50.821916,7.6097432 51.337279,6.8226202 52.344345,5.2843882 50.371444,4.4849702 49.579353,5.4018422 47.07122,8.3051834 37.600402,19.63539 37.569013,19.627628 Z"
       id="path9"
       sodipodi:nodetypes="ssssss" /><path
       style="fill:#d40000;fill-opacity:1;stroke-width:1.01621;stroke-dasharray:none"
       d="m 29.826316,21.118356 c -0.98614,1.458812 0.881633,2.287446 1.493305,2.095602 1.469492,-0.460936 1.175469,-2.731088 -0.374374,-2.678151 -0.08787,0.0031 -7.820006,-16.0055388 -8.380698,-16.7610238 -1.09577,-1.476385 -2.527383,0.09904 -1.940518,1.159044 1.858427,3.3565152 9.220417,16.1577348 9.202285,16.1845288 z"
       id="path9-4"
       sodipodi:nodetypes="ssssss" /><path
       style="fill:#d40000;fill-opacity:1;stroke-width:1.01621;stroke-dasharray:none"
       d="m 23.95195,26.611238 c 0.541753,1.675462 2.345008,0.714502 2.570664,0.114566 0.542063,-1.441518 -1.427391,-2.608263 -2.340351,-1.354739 -0.05154,0.0711 -17.4255398,-3.698723 -18.36604,-3.722413 -1.838029,-0.04626 -1.478806,2.052011 -0.282224,2.242613 3.7889172,0.603538 18.408047,2.689297 18.418013,2.720066 z"
       id="path9-4-6"
       sodipodi:nodetypes="ssssss" /></g><style
     type="text/css"
     id="style1">.st0{fill-rule:evenodd;clip-rule:evenodd;}</style></svg>
